<?xml version="1.0" encoding="utf-8"?>
<!-- Generator: Adobe Illustrator 16.1.0, SVG Export Plug-In . SVG Version: 6.00 Build 0)  -->
<!DOCTYPE svg PUBLIC "-//W3C//DTD SVG 1.1//EN" "http://www.w3.org/Graphics/SVG/1.1/DTD/svg11.dtd">
<svg version="1.1" id="Layer_1" xmlns="http://www.w3.org/2000/svg" xmlns:xlink="http://www.w3.org/1999/xlink" x="0px" y="0px"
	 width="89.897px" height="98.357px" viewBox="0 0 89.897 98.357" enable-background="new 0 0 89.897 98.357" xml:space="preserve">
<g>
	<g>
		<g>
			<path fill="none" d="M9.263,87.839l3.286,0.012h65.81l2.598-0.012V36.662l-0.007-4.323h-5.824L45.03,11.644L15.122,32.351
				l-5.858,0.006V87.839z M44.851,6.196l31.226,21.482l9.425,0.033v65.199H4.395l0.037-65.228l10.47-0.002L44.851,6.196z"/>
		</g>
		<path fill-rule="evenodd" clip-rule="evenodd" fill="#00539B" d="M62.287,68.146h-4.455v15.325h4.455V68.146z M32.328,68.146
			h-4.455v15.325h4.455V68.146z M45.179,47.016c-6.874,0-14.369,1.191-20.799,4.004v-6.466c0.061,0.013,20.639-14.047,20.639-14.047
			l20.771,14.02v6.413C59.397,48.191,52.007,47.016,45.179,47.016z M50.796,87.864H39.324V52.831
			c1.869-0.186,3.803-0.284,5.784-0.284c1.947,0,3.85,0.095,5.688,0.274V87.864z M47.314,68.146h-4.456v15.325h4.456V68.146z
			 M76.38,83.462V36.69l-2.853-0.015L45.034,17.593l-28.51,19.109l-2.667-0.007v46.767l10.524,0.021v-26.63
			c3.148-1.596,7.06-2.828,11.446-3.559v34.57L9.273,87.867v-55.53l5.858-0.005l29.902-20.699l30.087,20.699l5.845,0.005v55.53
			l-26.671-0.003V53.278c4.404,0.725,8.332,1.955,11.495,3.552v26.652L76.38,83.462z"/>
	</g>
</g>
</svg>
