<?xml version="1.0" encoding="utf-8"?>
<!-- Generator: Adobe Illustrator 16.1.0, SVG Export Plug-In . SVG Version: 6.00 Build 0)  -->
<!DOCTYPE svg PUBLIC "-//W3C//DTD SVG 1.1//EN" "http://www.w3.org/Graphics/SVG/1.1/DTD/svg11.dtd">
<svg version="1.1" id="Layer_1" xmlns="http://www.w3.org/2000/svg" xmlns:xlink="http://www.w3.org/1999/xlink" x="0px" y="0px"
	 width="89.897px" height="98.357px" viewBox="0 0 89.897 98.357" enable-background="new 0 0 89.897 98.357" xml:space="preserve">
<g>
	<g>
		<g>
			<path fill="none" d="M1.582,95.705l3.994,0.015h79.976l3.157-0.015V33.513L88.7,28.259h-7.078L45.047,3.107L8.701,28.273
				L1.582,28.28V95.705z M44.831-3.512l37.947,26.106l11.454,0.04v79.234H-4.335l0.045-79.269l12.724-0.003L44.831-3.512z"/>
		</g>
		<path fill-rule="evenodd" clip-rule="evenodd" fill="#FFFFFF" d="M66.019,71.773h-5.414v18.625h5.414V71.773z M29.611,71.773
			h-5.414v18.625h5.414V71.773z M45.229,46.095c-8.354,0-17.462,1.447-25.275,4.865v-7.857c0.073,0.016,25.081-17.071,25.081-17.071
			l25.242,17.038v7.794C62.507,47.523,53.527,46.095,45.229,46.095z M52.056,95.736H38.114V53.161
			c2.271-0.226,4.622-0.345,7.029-0.345c2.366,0,4.678,0.115,6.913,0.333V95.736z M47.824,71.773H42.41v18.625h5.414V71.773z
			 M83.147,90.387V33.546l-3.467-0.018l-34.628-23.19L10.406,33.561l-3.242-0.008v56.834l12.79,0.024V58.049
			c3.825-1.939,8.579-3.438,13.909-4.324v42.012L1.593,95.74V28.256l7.12-0.007L45.052,3.095l36.564,25.154l7.103,0.007V95.74
			l-32.412-0.004V53.705c5.352,0.881,10.125,2.377,13.97,4.316v32.39L83.147,90.387z"/>
	</g>
</g>
</svg>
