<?xml version="1.0" encoding="utf-8"?>
<!-- Generator: Adobe Illustrator 16.1.0, SVG Export Plug-In . SVG Version: 6.00 Build 0)  -->
<!DOCTYPE svg PUBLIC "-//W3C//DTD SVG 1.1//EN" "http://www.w3.org/Graphics/SVG/1.1/DTD/svg11.dtd">
<svg version="1.1" id="Layer_1" xmlns="http://www.w3.org/2000/svg" xmlns:xlink="http://www.w3.org/1999/xlink" x="0px" y="0px"
	 width="590.4px" height="158.4px" viewBox="0 0 590.4 158.4" enable-background="new 0 0 590.4 158.4" xml:space="preserve">
<g>
	<polygon fill-rule="evenodd" clip-rule="evenodd" fill="#FFFFFF" points="179.92,86.528 181.43,76.267 178.261,75.814 
		175.318,84.038 164.228,84.038 164.228,53.255 169.282,52.048 169.282,50.84 152.457,50.84 152.457,52.048 157.512,53.255 
		157.512,84.114 152.457,85.245 152.457,86.528 	"/>
	<polygon fill-rule="evenodd" clip-rule="evenodd" fill="#FFFFFF" points="212.54,86.528 214.049,76.267 210.881,75.814 
		207.938,84.038 196.848,84.038 196.848,53.255 201.902,52.048 201.902,50.84 185.076,50.84 185.076,52.048 190.132,53.255 
		190.132,84.114 185.076,85.245 185.076,86.528 	"/>
	<polygon fill-rule="evenodd" clip-rule="evenodd" fill="#FFFFFF" points="229.391,69.4 236.86,69.4 238.068,74.305 240.633,74.305 
		240.633,61.931 238.068,61.931 236.937,66.912 229.391,66.912 229.391,53.33 241.161,53.33 242.444,59.366 245.461,59.366 
		245.461,50.84 217.696,50.84 217.696,52.048 222.677,53.179 222.677,84.114 217.696,85.245 217.696,86.528 247.197,86.528 
		248.706,76.493 245.688,76.04 242.821,84.038 229.391,84.038 	"/>
	<polygon fill-rule="evenodd" clip-rule="evenodd" fill="#FFFFFF" points="285.645,86.905 287.53,86.829 288.059,53.255 
		291.604,52.048 291.604,50.84 279.004,50.84 279.004,52.124 284.664,53.255 285.04,75.965 263.689,50.84 252.673,50.84 
		252.673,52.048 256.672,53.255 258.029,54.688 257.502,84.114 253.503,85.245 253.503,86.528 267.084,86.528 267.084,85.245 
		261.199,84.038 260.596,57.33 	"/>
	<path fill-rule="evenodd" clip-rule="evenodd" fill="#FFFFFF" d="M381.552,56.574l0.98,5.131h3.018v-9.507
		c-1.659-0.452-6.79-2.112-13.958-2.112c-10.562,0-18.862,8.375-18.862,18.561c0,10.336,7.696,18.636,18.788,18.636
		c8.072,0,12.675-1.887,14.108-2.338l1.434-9.432l-3.018-0.453l-2.414,6.111c-1.208,0.904-3.548,3.622-9.96,3.622
		c-7.093,0-11.242-6.866-11.242-16.146c0-8.677,3.924-16.07,11.242-16.07C377.1,52.576,379.666,55.141,381.552,56.574z"/>
	<path fill-rule="evenodd" clip-rule="evenodd" fill="#FFFFFF" d="M390.596,86.528h11.092v-1.283l-5.282-1.131l3.169-8.3
		l12.752-0.076l2.941,8.376l-5.13,1.131v1.283h14.938v-1.283l-2.867-1.057l-12.524-33.574h-2.867l-14.184,33.5l-2.038,1.131V86.528z
		 M400.556,73.4l5.658-14.562l5.282,14.562H400.556z"/>
	<path fill-rule="evenodd" clip-rule="evenodd" fill="#FFFFFF" d="M427.85,86.528h17.202c10.562,0,20.221-5.734,20.221-17.958
		c0-11.996-8.752-17.73-20.221-17.73H427.85v1.208l4.98,1.131v30.935l-4.98,1.131V86.528z M439.544,84.038V53.33h5.508
		c7.318,0,12.601,5.734,12.601,15.24c0,8.904-5.282,15.468-12.601,15.468H439.544z"/>
	<polygon fill-rule="evenodd" clip-rule="evenodd" fill="#FFFFFF" points="479.47,69.4 486.938,69.4 488.146,74.305 490.712,74.305 
		490.712,61.931 488.146,61.931 487.015,66.912 479.47,66.912 479.47,53.33 491.24,53.33 492.522,59.366 495.54,59.366 
		495.54,50.84 467.775,50.84 467.775,52.048 472.756,53.179 472.756,84.114 467.775,85.245 467.775,86.528 497.276,86.528 
		498.784,76.493 495.767,76.04 492.9,84.038 479.47,84.038 	"/>
	<polygon fill-rule="evenodd" clip-rule="evenodd" fill="#FFFFFF" points="537.684,50.84 526.217,77.549 515.427,50.84 
		503.279,50.84 503.279,52.048 508.108,53.255 506.75,84.114 503.354,85.245 503.354,86.528 516.257,86.528 516.257,85.245 
		510.599,84.038 510.824,56.423 523.123,86.905 525.387,86.905 537.76,58.461 538.287,84.038 532.177,85.245 532.177,86.528 
		549.529,86.528 549.529,85.245 545.003,84.114 544.248,53.255 549.002,52.048 549.002,50.84 537.835,50.84 	"/>
	<polygon fill-rule="evenodd" clip-rule="evenodd" fill="#FFFFFF" points="573.881,69.175 584.367,53.179 586.857,52.048 
		586.857,50.84 575.69,50.84 575.69,52.048 580.595,53.179 572.522,66.912 564.449,53.179 568.675,52.048 568.675,50.84 
		554.792,50.84 554.792,52.048 557.433,53.179 567.09,69.175 567.09,84.038 560.677,85.169 560.677,86.528 580.369,86.528 
		580.369,85.169 573.881,84.038 	"/>
	<path fill="#FFFFFF" d="M116.354,72.126l-3.966,11.897l7.319,1.208v1.282h-13.884v-1.132l2.641-1.207l18.562-48.215h2.415
		l15.997,48.215l3.018,1.207v1.132h-16.449v-1.282l6.188-1.208l-3.438-11.739c-2.959-1.088-5.625-1.675-8.912-1.675
		C122.718,70.609,119.209,71.14,116.354,72.126z M117.67,68.404l-0.239,0.657c2.542-0.762,5.679-1.168,8.412-1.168
		c2.926,0,5.259,0.466,7.927,1.335l-0.285-0.824l-7.516-22.938L117.67,68.404z"/>
	<path fill="#FFFFFF" d="M318.497,72.126l-3.966,11.897l7.318,1.208v1.282h-13.884v-1.132l2.642-1.207l18.562-48.215h2.414
		l15.997,48.215l3.018,1.207v1.132h-16.449v-1.282l6.188-1.208l-3.438-11.739c-2.959-1.088-5.625-1.675-8.912-1.675
		C324.86,70.609,321.352,71.14,318.497,72.126z M319.812,68.404l-0.239,0.657c2.542-0.762,5.68-1.168,8.412-1.168
		c2.926,0,5.259,0.466,7.927,1.335l-0.284-0.824l-7.516-22.938L319.812,68.404z"/>
</g>
<g>
	<g>
		<g>
			<path fill="#FFFFFF" d="M9.172,86.485l3.286,0.012h65.81l2.598-0.012V35.309l-0.007-4.323h-5.824L44.938,10.29L15.03,30.998
				l-5.858,0.006V86.485z M44.76,4.843l31.226,21.482l9.425,0.033v65.199H4.303L4.34,26.33l10.47-0.002L44.76,4.843z"/>
		</g>
		<path fill-rule="evenodd" clip-rule="evenodd" fill="#FFFFFF" d="M62.195,66.793H57.74v15.325h4.455V66.793z M32.236,66.793
			h-4.455v15.325h4.455V66.793z M45.088,45.662c-6.874,0-14.369,1.191-20.799,4.004V43.2c0.061,0.013,20.639-14.047,20.639-14.047
			l20.771,14.02v6.413C59.306,46.837,51.916,45.662,45.088,45.662z M50.705,86.511H39.233V51.478
			c1.869-0.186,3.803-0.284,5.784-0.284c1.947,0,3.85,0.095,5.688,0.275V86.511z M47.223,66.793h-4.456v15.325h4.456V66.793z
			 M76.289,82.108V35.337l-2.853-0.015L44.942,16.239l-28.51,19.109l-2.667-0.007v46.767l10.524,0.021v-26.63
			c3.148-1.595,7.06-2.828,11.446-3.558v34.57L9.182,86.514v-55.53l5.858-0.005l29.902-20.699L75.03,30.978l5.845,0.005v55.53
			l-26.671-0.003V51.925c4.404,0.725,8.332,1.955,11.495,3.551v26.652L76.289,82.108z"/>
	</g>
</g>
<g>
	<g>
		<path fill-rule="evenodd" clip-rule="evenodd" fill="#FFFFFF" d="M189.234,152.773h4.22v-0.39l-2.224-0.367l1.33-3.99h5.343
			l1.169,3.99l-1.88,0.367v0.39h5v-0.344l-0.917-0.367l-4.862-14.653h-0.734l-5.642,14.653l-0.803,0.367V152.773z M192.835,147.27
			l2.522-6.972l2.293,6.972H192.835z"/>
		<path fill-rule="evenodd" clip-rule="evenodd" fill="#FFFFFF" d="M220.994,139.289l0.39,2.133h1.078v-3.257
			c-0.596-0.184-2.912-0.985-5.687-0.985c-4.334,0-7.407,3.577-7.407,7.958c0,4.402,2.821,7.934,7.384,7.934
			c3.302,0,5.114-0.871,5.641-1.123l0.62-3.303l-1.055-0.16l-0.986,2.431c-0.573,0.458-1.605,1.376-4.22,1.376
			c-3.302,0-4.931-3.188-4.931-7.154c0-3.991,1.674-7.201,4.954-7.201C218.747,137.937,220.489,138.899,220.994,139.289z"/>
		<path fill-rule="evenodd" clip-rule="evenodd" fill="#FFFFFF" d="M230.535,141.697c-3.21,0-5.985,2.362-5.985,5.642
			c0,3.21,2.775,5.664,5.985,5.664c3.394,0,5.985-2.454,5.985-5.664C236.521,144.06,233.929,141.697,230.535,141.697z
			 M230.535,142.454c2.247,0,3.646,2.063,3.646,4.885c0,2.82-1.399,4.907-3.646,4.907c-2.248,0-3.646-2.087-3.646-4.907
			C226.889,144.518,228.288,142.454,230.535,142.454z"/>
		<polygon fill-rule="evenodd" clip-rule="evenodd" fill="#FFFFFF" points="246.789,152.773 247.247,149.655 246.284,149.517 
			245.39,152.017 242.019,152.017 242.019,142.66 243.555,142.294 243.555,141.927 238.441,141.927 238.441,142.294 239.978,142.66 
			239.978,152.04 238.441,152.384 238.441,152.773 		"/>
		<polygon fill-rule="evenodd" clip-rule="evenodd" fill="#FFFFFF" points="256.703,152.773 257.162,149.655 256.199,149.517 
			255.305,152.017 251.934,152.017 251.934,142.66 253.47,142.294 253.47,141.927 248.356,141.927 248.356,142.294 249.893,142.66 
			249.893,152.04 248.356,152.384 248.356,152.773 		"/>
		<polygon fill-rule="evenodd" clip-rule="evenodd" fill="#FFFFFF" points="261.825,147.567 264.095,147.567 264.462,149.059 
			265.242,149.059 265.242,145.298 264.462,145.298 264.119,146.812 261.825,146.812 261.825,142.683 265.403,142.683 
			265.792,144.518 266.709,144.518 266.709,141.927 258.271,141.927 258.271,142.294 259.784,142.638 259.784,152.04 
			258.271,152.384 258.271,152.773 267.237,152.773 267.696,149.724 266.779,149.585 265.907,152.017 261.825,152.017 		"/>
		<path fill-rule="evenodd" clip-rule="evenodd" fill="#FFFFFF" d="M281.125,148.622v-0.366h-4.839v0.366l1.72,0.345v2.225
			c-0.458,0.229-1.307,1.055-3.142,1.055c-1.95,0-3.601-1.788-3.601-4.907c0.023-3.096,1.651-4.885,3.601-4.885
			c1.857,0,3.027,1.078,3.486,1.353l0.275,1.536h0.963V142.5c-0.757-0.275-2.316-0.803-4.724-0.803
			c-2.958,0-5.894,2.271-5.894,5.642c0,3.141,2.316,5.664,5.894,5.664c2.637,0,4.38-0.711,5.137-1.078v-2.958L281.125,148.622z"/>
		<polygon fill-rule="evenodd" clip-rule="evenodd" fill="#FFFFFF" points="286.219,147.567 288.49,147.567 288.857,149.059 
			289.636,149.059 289.636,145.298 288.857,145.298 288.513,146.812 286.219,146.812 286.219,142.683 289.797,142.683 
			290.187,144.518 291.104,144.518 291.104,141.927 282.665,141.927 282.665,142.294 284.179,142.638 284.179,152.04 
			282.665,152.384 282.665,152.773 291.632,152.773 292.09,149.724 291.173,149.585 290.302,152.017 286.219,152.017 		"/>
		<path fill-rule="evenodd" clip-rule="evenodd" fill="#FFFFFF" d="M305.06,145.55c3.096,0,5.16-1.789,5.16-4.219
			c0-2.432-2.041-3.854-5.022-3.854h-5.71v0.391l1.559,0.366v13.782l-1.559,0.367v0.39h6.352v-0.413l-2.682-0.39v-6.444
			L305.06,145.55z M303.157,144.724v-6.489h1.49c2.43,0,3.324,1.353,3.348,3.097c0,1.719-1.216,3.393-3.348,3.393H303.157z"/>
		<path fill-rule="evenodd" clip-rule="evenodd" fill="#FFFFFF" d="M315.687,146.856v-4.196h0.872c1.308,0,2.294,0.55,2.294,2.019
			c0,1.444-1.078,2.178-2.363,2.178H315.687z M320.962,144.495c0-1.262-0.803-2.568-3.922-2.568h-4.907v0.367l1.514,0.366v9.38
			l-1.514,0.344v0.39h5.067v-0.39l-1.514-0.344v-4.495h0.918l3.096,5.39l2.82-0.161v-0.367l-1.008-0.344l-3.005-4.976
			C319.311,146.926,320.962,146.237,320.962,144.495z"/>
		<polygon fill-rule="evenodd" clip-rule="evenodd" fill="#FFFFFF" points="327.226,147.567 329.495,147.567 329.862,149.059 
			330.643,149.059 330.643,145.298 329.862,145.298 329.519,146.812 327.226,146.812 327.226,142.683 330.804,142.683 
			331.192,144.518 332.11,144.518 332.11,141.927 323.671,141.927 323.671,142.294 325.185,142.638 325.185,152.04 323.671,152.384 
			323.671,152.773 332.638,152.773 333.097,149.724 332.179,149.585 331.308,152.017 327.226,152.017 		"/>
		<path fill-rule="evenodd" clip-rule="evenodd" fill="#FFFFFF" d="M339.806,147.706c2.293,0,4.06-1.285,4.06-3.073
			c0-1.927-1.606-2.706-3.944-2.706h-5.068v0.367l1.514,0.366v9.38l-1.514,0.344v0.39h5.894v-0.413l-2.339-0.344v-4.334
			L339.806,147.706z M338.407,146.972v-4.312h1.101c1.812,0,2.294,1.009,2.315,2.063c0,1.056-0.688,2.248-2.315,2.248H338.407z"/>
		<path fill-rule="evenodd" clip-rule="evenodd" fill="#FFFFFF" d="M344.063,152.773h3.371v-0.39l-1.605-0.344l0.963-2.523
			l3.876-0.022l0.894,2.546l-1.559,0.344v0.39h4.541v-0.39l-0.871-0.321l-3.808-10.205h-0.872l-4.311,10.183l-0.619,0.344V152.773z
			 M347.091,148.783l1.72-4.426l1.605,4.426H347.091z"/>
		<path fill-rule="evenodd" clip-rule="evenodd" fill="#FFFFFF" d="M359.399,146.856v-4.196h0.871c1.308,0,2.293,0.55,2.293,2.019
			c0,1.444-1.077,2.178-2.361,2.178H359.399z M364.675,144.495c0-1.262-0.803-2.568-3.922-2.568h-4.908v0.367l1.514,0.366v9.38
			l-1.514,0.344v0.39h5.068v-0.39l-1.514-0.344v-4.495h0.918l3.096,5.39l2.82-0.161v-0.367l-1.01-0.344l-3.004-4.976
			C363.022,146.926,364.675,146.237,364.675,144.495z"/>
		<path fill-rule="evenodd" clip-rule="evenodd" fill="#FFFFFF" d="M366.626,152.773h3.371v-0.39l-1.605-0.344l0.964-2.523
			l3.876-0.022l0.894,2.546l-1.56,0.344v0.39h4.541v-0.39l-0.871-0.321l-3.807-10.205h-0.872l-4.312,10.183l-0.619,0.344V152.773z
			 M369.653,148.783l1.721-4.426l1.605,4.426H369.653z"/>
		<polygon fill-rule="evenodd" clip-rule="evenodd" fill="#FFFFFF" points="383.384,152.017 383.384,142.683 385.861,142.683 
			386.205,144.518 387.146,144.518 387.146,141.927 377.56,141.927 377.56,144.518 378.454,144.518 378.821,142.683 
			381.343,142.683 381.343,152.017 379.118,152.338 379.118,152.773 385.586,152.773 385.586,152.338 		"/>
		<path fill-rule="evenodd" clip-rule="evenodd" fill="#FFFFFF" d="M394.673,141.697c-3.211,0-5.986,2.362-5.986,5.642
			c0,3.21,2.775,5.664,5.986,5.664c3.393,0,5.984-2.454,5.984-5.664C400.657,144.06,398.065,141.697,394.673,141.697z
			 M394.673,142.454c2.246,0,3.646,2.063,3.646,4.885c0,2.82-1.399,4.907-3.646,4.907c-2.248,0-3.646-2.087-3.646-4.907
			C391.026,144.518,392.425,142.454,394.673,142.454z"/>
		<path fill-rule="evenodd" clip-rule="evenodd" fill="#FFFFFF" d="M405.444,146.856v-4.196h0.872c1.308,0,2.293,0.55,2.293,2.019
			c0,1.444-1.077,2.178-2.362,2.178H405.444z M410.72,144.495c0-1.262-0.803-2.568-3.922-2.568h-4.908v0.367l1.515,0.366v9.38
			l-1.515,0.344v0.39h5.068v-0.39l-1.514-0.344v-4.495h0.918l3.096,5.39l2.82-0.161v-0.367l-1.009-0.344l-3.004-4.976
			C409.068,146.926,410.72,146.237,410.72,144.495z"/>
		<polygon fill-rule="evenodd" clip-rule="evenodd" fill="#FFFFFF" points="418.451,147.499 421.639,142.638 422.396,142.294 
			422.396,141.927 419.001,141.927 419.001,142.294 420.491,142.638 418.038,146.812 415.585,142.638 416.868,142.294 
			416.868,141.927 412.649,141.927 412.649,142.294 413.452,142.638 416.388,147.499 416.388,152.017 414.438,152.36 
			414.438,152.773 420.423,152.773 420.423,152.36 418.451,152.017 		"/>
		<path fill-rule="evenodd" clip-rule="evenodd" fill="#FFFFFF" d="M433.709,137.18c-2.11,0-4.06,1.628-4.06,3.876
			c0,2.659,1.651,3.279,3.395,4.311c1.354,0.826,3.99,1.995,3.99,3.898s-1.307,3.004-3.119,3.004c-1.398,0-2.408-0.825-2.866-1.146
			l-0.733-2.545l-0.986,0.115l0.184,3.646c0.481,0.138,2.018,0.733,4.746,0.733c2.752,0,4.793-1.972,4.793-4.586
			c0-2.477-2.431-3.486-3.99-4.426c-1.674-1.01-3.508-1.973-3.508-3.602c0-1.513,1.055-2.521,2.453-2.521
			c1.33,0,2.248,0.642,2.637,0.917l0.527,2.293h1.079v-3.278C437.63,137.638,435.681,137.18,433.709,137.18z"/>
		<path fill-rule="evenodd" clip-rule="evenodd" fill="#FFFFFF" d="M449.702,143.669l0.298,1.561h0.917v-2.891
			c-0.504-0.137-2.063-0.642-4.242-0.642c-3.211,0-5.732,2.546-5.732,5.642c0,3.141,2.338,5.664,5.709,5.664
			c2.454,0,3.854-0.573,4.289-0.711l0.436-2.867l-0.917-0.137l-0.733,1.857c-0.367,0.275-1.078,1.101-3.027,1.101
			c-2.156,0-3.418-2.087-3.418-4.907c0-2.638,1.193-4.885,3.418-4.885C448.349,142.454,449.129,143.233,449.702,143.669z"/>
		<polygon fill-rule="evenodd" clip-rule="evenodd" fill="#FFFFFF" points="456.786,147.567 461.831,147.567 461.831,152.04 
			460.294,152.384 460.294,152.773 465.407,152.773 465.407,152.384 463.872,152.04 463.872,142.66 465.407,142.294 
			465.407,141.927 460.294,141.927 460.294,142.294 461.831,142.66 461.831,146.812 456.786,146.812 456.786,142.66 
			458.299,142.294 458.299,141.927 453.208,141.927 453.208,142.294 454.745,142.66 454.745,152.04 453.208,152.384 
			453.208,152.773 458.299,152.773 458.299,152.384 456.786,152.04 		"/>
		<path fill-rule="evenodd" clip-rule="evenodd" fill="#FFFFFF" d="M472.844,141.697c-3.21,0-5.985,2.362-5.985,5.642
			c0,3.21,2.775,5.664,5.985,5.664c3.394,0,5.985-2.454,5.985-5.664C478.829,144.06,476.237,141.697,472.844,141.697z
			 M472.844,142.454c2.247,0,3.646,2.063,3.646,4.885c0,2.82-1.398,4.907-3.646,4.907s-3.646-2.087-3.646-4.907
			C469.197,144.518,470.597,142.454,472.844,142.454z"/>
		<path fill-rule="evenodd" clip-rule="evenodd" fill="#FFFFFF" d="M486.735,141.697c-3.211,0-5.985,2.362-5.985,5.642
			c0,3.21,2.774,5.664,5.985,5.664c3.395,0,5.985-2.454,5.985-5.664C492.721,144.06,490.13,141.697,486.735,141.697z
			 M486.735,142.454c2.247,0,3.646,2.063,3.646,4.885c0,2.82-1.399,4.907-3.646,4.907c-2.248,0-3.646-2.087-3.646-4.907
			C483.089,144.518,484.487,142.454,486.735,142.454z"/>
		<polygon fill-rule="evenodd" clip-rule="evenodd" fill="#FFFFFF" points="502.989,152.773 503.447,149.655 502.484,149.517 
			501.591,152.017 498.22,152.017 498.22,142.66 499.755,142.294 499.755,141.927 494.642,141.927 494.642,142.294 496.178,142.66 
			496.178,152.04 494.642,152.384 494.642,152.773 		"/>
	</g>
</g>
<g>
	<g>
		<rect x="107.346" y="113.38" fill="#FFFFFF" width="477.989" height="2.364"/>
		<path fill="#FFFFFF" d="M346.341,114.562"/>
	</g>
</g>
</svg>
